<svg width="30" height="30" viewBox="0 0 30 30" fill="none" xmlns="http://www.w3.org/2000/svg">
<path d="M29.9795 24.6919C29.8841 23.971 29.468 23.3494 28.8379 22.9866L21.4367 18.7253C20.5303 18.2034 19.3803 18.3554 18.6404 19.0952L17.1826 20.553C16.7947 20.941 16.181 20.9753 15.7553 20.6327C14.6061 19.708 13.4745 18.6903 12.3922 17.6079C11.3098 16.5255 10.2921 15.394 9.36725 14.2447C9.02469 13.819 9.05896 13.2053 9.44701 12.8173L10.9047 11.3596C11.6446 10.6198 11.7967 9.46999 11.2747 8.56333L7.01336 1.16223C6.65051 0.532049 6.02901 0.115945 5.30812 0.0205693C4.58716 -0.0750011 3.87877 0.165448 3.36456 0.679649L1.16799 2.87628C-0.365098 4.40942 -0.38972 7.21381 1.09866 10.773C2.52982 14.1952 5.20062 17.9626 8.61895 21.381C12.0374 24.7994 15.8048 27.4702 19.2271 28.9014C20.9791 29.634 22.548 30.0001 23.8726 30C25.239 30 26.3454 29.6104 27.1239 28.832L29.3204 26.6353C29.8346 26.1211 30.0748 25.4127 29.9795 24.6919V24.6919ZM20.9518 19.5676L28.3529 23.8289C28.719 24.0396 28.9606 24.4006 29.016 24.8193C29.0625 25.1707 28.9712 25.5167 28.7642 25.7955L18.9282 20.1819L19.3277 19.7825C19.7573 19.3528 20.4253 19.2645 20.9518 19.5676V19.5676ZM5.1806 0.984113C5.59936 1.03951 5.96033 1.28119 6.17104 1.64721L10.4323 9.04831C10.7356 9.57489 10.6472 10.2428 10.2175 10.6724L9.85061 11.0393L4.20617 1.23584C4.4369 1.06498 4.71286 0.972191 5.00054 0.972191C5.06022 0.972191 5.12041 0.976144 5.1806 0.984113V0.984113ZM26.4365 28.1447C25.2185 29.3627 22.7275 29.3116 19.6021 28.0046C16.2937 26.6211 12.6373 24.0247 9.30628 20.6938C5.97523 17.3627 3.37882 13.7063 1.99534 10.398C0.688254 7.27258 0.637262 4.78153 1.85526 3.56348L3.48592 1.93275L9.13885 11.751L8.75975 12.1301C8.02013 12.8698 7.95572 14.0408 8.61001 14.8541C9.55658 16.0305 10.5979 17.1882 11.7048 18.2951C12.8119 19.4021 13.9696 20.4434 15.146 21.39C15.9591 22.0443 17.1301 21.9799 17.8699 21.2402L18.2158 20.8943L28.0654 26.5157L26.4365 28.1447V28.1447Z" fill="white"/>
</svg>
