<svg width="20" height="20" viewBox="0 0 20 20" fill="none" xmlns="http://www.w3.org/2000/svg">
<path d="M19.9863 16.4612C19.9228 15.9806 19.6453 15.5663 19.2252 15.3244L14.2911 12.4836C13.6868 12.1356 12.9202 12.2369 12.4269 12.7301L11.4551 13.702C11.1965 13.9606 10.7873 13.9835 10.5036 13.7552C9.73739 13.1387 8.98302 12.4602 8.26143 11.7386C7.53985 11.017 6.86137 10.2627 6.24483 9.49646C6.01646 9.21266 6.03931 8.80355 6.29801 8.5449L7.26983 7.57304C7.76304 7.07988 7.86446 6.31332 7.51643 5.70889L4.67557 0.77482C4.43368 0.354699 4.01934 0.0772969 3.53874 0.0137129C3.0581 -0.0500007 2.58584 0.110298 2.24304 0.453099L0.778658 1.91752C-0.243399 2.93961 -0.259813 4.80921 0.732439 7.18199C1.68655 9.4635 3.46708 11.9751 5.74597 14.254C8.02494 16.5329 10.5365 18.3135 12.8181 19.2676C13.9861 19.756 15.032 20 15.9151 20C16.826 20 17.5636 19.7403 18.0826 19.2213L19.547 17.7569C19.8897 17.4141 20.0499 16.9418 19.9863 16.4612V16.4612ZM13.9679 13.0451L18.902 15.8859C19.146 16.0264 19.3071 16.2671 19.344 16.5462C19.375 16.7805 19.3141 17.0111 19.1762 17.197L12.6188 13.4546L12.8851 13.1883C13.1716 12.9019 13.6169 12.843 13.9679 13.0451V13.0451ZM3.45373 0.656076C3.73291 0.693008 3.97355 0.854128 4.11403 1.09814L6.95489 6.03221C7.15705 6.38326 7.09813 6.82852 6.81169 7.11491L6.56708 7.35952L2.80411 0.823891C2.95793 0.709984 3.1419 0.648128 3.33369 0.648128C3.37348 0.648128 3.41361 0.650762 3.45373 0.656076V0.656076ZM17.6244 18.7631C16.8124 19.5751 15.1516 19.5411 13.0681 18.6697C10.8625 17.7474 8.42489 16.0165 6.20419 13.7959C3.98349 11.5752 2.25254 9.13754 1.33023 6.93202C0.458836 4.84839 0.424841 3.18769 1.23684 2.37565L2.32395 1.2885L6.09257 7.83403L5.83983 8.08677C5.34675 8.57989 5.30381 9.36052 5.74 9.90271C6.37105 10.687 7.06525 11.4588 7.80321 12.1967C8.54126 12.9347 9.31308 13.6289 10.0973 14.26C10.6394 14.6962 11.42 14.6533 11.9133 14.1601L12.1438 13.9295L18.7103 17.6772L17.6244 18.7631V18.7631Z" fill="white"/>
</svg>
